<svg width="18" height="20" viewBox="0 0 18 20" fill="none" xmlns="http://www.w3.org/2000/svg">
<path d="M17.4212 20.0002H15.3947C15.3947 16.5814 12.5271 13.801 8.9999 13.801C5.47269 13.801 2.60614 16.5824 2.60614 20.0002H0.57959C0.57959 15.4627 4.35809 11.7744 9.00091 11.7744C13.6427 11.7744 17.4212 15.4627 17.4212 20.0002Z" fill="#5E6671"/>
<path d="M9.00089 11.1156C5.93776 11.1156 3.44409 8.62093 3.44409 5.55781C3.44308 2.49367 5.93675 0 9.00089 0C12.066 0 14.5597 2.49265 14.5597 5.55781C14.5597 8.62296 12.066 11.1156 9.00089 11.1156ZM9.00089 2.02655C7.05337 2.02655 5.46963 3.61029 5.46963 5.55781C5.46963 7.50532 7.05337 9.08907 9.00089 9.08907C10.9494 9.08907 12.5332 7.50532 12.5332 5.55781C12.5332 3.61029 10.9474 2.02655 9.00089 2.02655Z" fill="#5E6671"/>
</svg>
