<svg width="16" height="14" viewBox="0 0 16 14" fill="none" xmlns="http://www.w3.org/2000/svg">
<path d="M8 13C7.80069 13 7.60854 12.9304 7.45879 12.8041C6.89322 12.3276 6.34795 11.8799 5.86687 11.4849L5.86441 11.4829C4.45396 10.3249 3.23599 9.32484 2.38855 8.33973C1.44124 7.23843 1 6.19425 1 5.05354C1 3.94525 1.39445 2.92279 2.11063 2.17436C2.83534 1.41708 3.82976 1 4.91101 1C5.71915 1 6.45924 1.24615 7.11069 1.73155C7.43945 1.97657 7.73746 2.27644 8 2.62621C8.26265 2.27644 8.56055 1.97657 8.88942 1.73155C9.54086 1.24615 10.281 1 11.0891 1C12.1702 1 13.1648 1.41708 13.8895 2.17436C14.6057 2.92279 15 3.94525 15 5.05354C15 6.19425 14.5589 7.23843 13.6116 8.33962C12.7641 9.32484 11.5462 10.3248 10.136 11.4827C9.65408 11.8782 9.10796 12.3267 8.54111 12.8043C8.39146 12.9304 8.1992 13 8 13ZM4.91101 1.79011C4.06154 1.79011 3.28117 2.11673 2.71347 2.70988C2.13733 3.31197 1.81999 4.14427 1.81999 5.05354C1.81999 6.01293 2.19009 6.87096 3.01991 7.83559C3.82196 8.76802 5.01494 9.74747 6.39622 10.8816L6.39879 10.8836C6.88168 11.2801 7.42909 11.7296 7.99883 12.2096C8.57198 11.7287 9.12024 11.2785 9.6041 10.8814C10.9853 9.74726 12.1781 8.76802 12.9802 7.83559C13.8099 6.87096 14.18 6.01293 14.18 5.05354C14.18 4.14427 13.8627 3.31197 13.2865 2.70988C12.7189 2.11673 11.9385 1.79011 11.0891 1.79011C10.4668 1.79011 9.89548 1.98069 9.39101 2.3565C8.94144 2.69156 8.62827 3.11512 8.44466 3.41148C8.35023 3.56389 8.18404 3.65486 8 3.65486C7.81596 3.65486 7.64977 3.56389 7.55534 3.41148C7.37184 3.11512 7.05867 2.69156 6.60899 2.3565C6.10452 1.98069 5.53319 1.79011 4.91101 1.79011Z" fill="#878686" stroke="#878686" stroke-width="0.3"/>
</svg>
