<svg width="16" height="16" viewBox="0 0 16 16" fill="none" xmlns="http://www.w3.org/2000/svg">
<path d="M12.7179 10.6667C11.9062 10.6667 11.1785 11.0317 10.689 11.6057L5.87323 8.62819C5.92211 8.42653 5.94867 8.21634 5.94867 7.99997C5.94867 7.78356 5.92208 7.57334 5.87323 7.37175L10.689 4.39422C11.1785 4.96825 11.9061 5.33328 12.7179 5.33328C14.1883 5.33328 15.3846 4.137 15.3846 2.66663C15.3846 1.19628 14.1883 0 12.7179 0C11.2475 0 10.0513 1.19628 10.0513 2.66666C10.0513 2.88306 10.0779 3.09328 10.1267 3.29487L5.31095 6.27241C4.82142 5.69837 4.09376 5.33334 3.28201 5.33334C1.81161 5.33334 0.615356 6.52962 0.615356 8C0.615356 9.47038 1.81164 10.6667 3.28201 10.6667C4.09379 10.6667 4.82145 10.3016 5.31098 9.72759L10.1267 12.7051C10.0778 12.9067 10.0513 13.1169 10.0513 13.3333C10.0513 14.8038 11.2475 16 12.7179 16C14.1883 16 15.3846 14.8037 15.3846 13.3333C15.3846 11.863 14.1883 10.6667 12.7179 10.6667ZM12.7179 1.23078C13.5097 1.23078 14.1538 1.87494 14.1538 2.66669C14.1538 3.45844 13.5097 4.10259 12.7179 4.10259C11.9262 4.10259 11.282 3.45844 11.282 2.66669C11.282 1.87494 11.9262 1.23078 12.7179 1.23078ZM3.28204 9.43591C2.49029 9.43591 1.84614 8.79175 1.84614 8C1.84614 7.20825 2.49029 6.56409 3.28204 6.56409C4.07379 6.56409 4.71795 7.20825 4.71795 8C4.71795 8.79175 4.07379 9.43591 3.28204 9.43591ZM12.7179 14.7692C11.9262 14.7692 11.282 14.1251 11.282 13.3333C11.282 12.5416 11.9262 11.8974 12.7179 11.8974C13.5097 11.8974 14.1538 12.5416 14.1538 13.3333C14.1538 14.1251 13.5097 14.7692 12.7179 14.7692Z" fill="#878686"/>
</svg>
